# xmcd
#
# Track frame offsets: 
#        175
#        19692
#        38525
#        58205
#
# Disc length: 1051 seconds
#
# Revision: 1
# Processed by: cddbd v1.5.1PL0 Copyright (c) Steve Scherf et al.
# Submitted via: ExactAudioCopy v0.95a5
#
DISCID=29041904
DTITLE=Hooker, John Lee - Boom Boom
DYEAR=1992
DGENRE=Blues
TTITLE0=Boom Boom
TTITLE1=Homework
TTITLE2=The Blues Will Never Die
TTITLE3=Thought I Heard
EXTD=YEAR: 1992
EXTT0=
EXTT1=
EXTT2=
EXTT3=
PLAYORDER=
